<svg width="386" height="211" viewBox="0 0 386 211" fill="none" xmlns="http://www.w3.org/2000/svg">
<path d="M137.766 129.359C137.766 132.25 137.25 135.037 136.217 137.721C135.185 140.303 133.481 142.419 131.107 144.071C128.835 145.723 125.687 146.549 121.66 146.549C117.53 146.549 114.278 145.723 111.904 144.071C109.632 142.419 107.981 140.303 106.948 137.721C106.019 135.037 105.554 132.25 105.554 129.359V52.702C105.554 49.708 106.019 46.8689 106.948 44.1846C107.981 41.5003 109.632 39.3322 111.904 37.6804C114.278 35.9253 117.53 35.0477 121.66 35.0477C127.442 35.0477 131.52 36.6996 133.894 40.0033C136.372 43.307 137.663 47.0754 137.766 51.3083C138.076 51.618 138.23 52.0826 138.23 52.702C138.23 54.0442 137.559 54.7152 136.217 54.7152C134.875 54.7152 134.204 54.0442 134.204 52.702C134.204 52.1858 134.359 51.7728 134.669 51.4631C134.565 48.1594 133.533 45.1138 131.571 42.3262C129.713 39.5387 126.409 38.1449 121.66 38.1449C118.356 38.1449 115.724 38.8676 113.762 40.313C111.904 41.7584 110.562 43.6168 109.736 45.8881C109.013 48.0561 108.652 50.3275 108.652 52.702V129.359C108.652 132.972 109.581 136.224 111.439 139.115C113.298 142.006 116.705 143.451 121.66 143.451C126.616 143.451 130.023 142.006 131.881 139.115C133.739 136.224 134.669 132.972 134.669 129.359V101.793H122.899C122.589 102.103 122.176 102.258 121.66 102.258C120.318 102.258 119.647 101.587 119.647 100.245C119.647 98.9026 120.318 98.2316 121.66 98.2316C122.176 98.2316 122.589 98.3864 122.899 98.6961H137.766V129.359Z" fill="#0183FF"/>
<path d="M162.669 141.356C162.805 141.536 162.872 141.717 162.872 141.898C162.872 142.485 162.579 142.778 161.992 142.778C161.404 142.778 161.111 142.485 161.111 141.898C161.111 141.672 161.179 141.491 161.314 141.356V139.933C160.727 140.791 159.982 141.491 159.078 142.033C158.175 142.53 157.046 142.778 155.691 142.778C153.929 142.778 152.529 142.394 151.49 141.627C150.496 140.859 149.774 139.888 149.322 138.713C148.915 137.494 148.712 136.252 148.712 134.987V129.499C148.712 128.189 148.915 126.947 149.322 125.773C149.728 124.598 150.541 123.627 151.761 122.859C153.026 122.091 154.878 121.707 157.317 121.707H161.314V115.339C161.314 114.3 161.133 113.306 160.772 112.358C160.456 111.364 159.891 110.551 159.078 109.919C158.265 109.241 157.136 108.902 155.691 108.902C153.658 108.902 152.213 109.512 151.354 110.732C150.496 111.951 150.045 113.284 149.999 114.729C150.135 114.91 150.203 115.09 150.203 115.271C150.203 115.813 149.909 116.084 149.322 116.084C148.735 116.084 148.441 115.813 148.441 115.271C148.441 115 148.509 114.797 148.644 114.661C148.735 113.442 149.006 112.29 149.457 111.206C149.954 110.122 150.7 109.241 151.693 108.564C152.687 107.886 154.019 107.547 155.691 107.547C157.452 107.547 158.83 107.931 159.823 108.699C160.862 109.467 161.585 110.438 161.992 111.612C162.443 112.787 162.669 114.029 162.669 115.339V141.356ZM150.067 134.987C150.067 136.026 150.225 137.042 150.541 138.036C150.858 139.029 151.422 139.842 152.235 140.475C153.093 141.107 154.245 141.423 155.691 141.423C157.136 141.423 158.243 141.13 159.01 140.543C159.823 139.955 160.388 139.21 160.704 138.307C161.066 137.403 161.269 136.455 161.314 135.461V123.062H157.317C155.194 123.062 153.613 123.379 152.574 124.011C151.535 124.643 150.858 125.456 150.541 126.45C150.225 127.444 150.067 128.46 150.067 129.499V134.987ZM191.558 141.356C191.694 141.491 191.761 141.672 191.761 141.898C191.761 142.485 191.468 142.778 190.881 142.778C190.293 142.778 190 142.485 190 141.898C190 141.672 190.067 141.491 190.203 141.356V114.458C190.203 113.148 189.864 111.906 189.187 110.732C188.509 109.512 187.222 108.902 185.325 108.902C183.518 108.902 182.276 109.444 181.598 110.528C180.921 111.567 180.537 112.742 180.447 114.051V141.356C180.582 141.491 180.65 141.672 180.65 141.898C180.65 142.485 180.356 142.778 179.769 142.778C179.182 142.778 178.888 142.485 178.888 141.898C178.888 141.672 178.956 141.491 179.092 141.356V114.458C179.092 113.148 178.753 111.906 178.075 110.732C177.398 109.512 176.111 108.902 174.213 108.902C172.407 108.902 171.142 109.444 170.419 110.528C169.697 111.567 169.335 112.742 169.335 114.051V141.356C169.471 141.491 169.539 141.672 169.539 141.898C169.539 142.485 169.245 142.778 168.658 142.778C168.071 142.778 167.777 142.485 167.777 141.898C167.777 141.672 167.845 141.491 167.98 141.356V109.038C167.845 108.812 167.777 108.609 167.777 108.428C167.777 107.841 168.071 107.547 168.658 107.547C169.245 107.547 169.539 107.841 169.539 108.428C169.539 108.609 169.471 108.812 169.335 109.038V110.19C169.877 109.331 170.532 108.676 171.3 108.225C172.113 107.773 173.107 107.547 174.281 107.547C175.862 107.547 177.082 107.886 177.94 108.564C178.843 109.196 179.476 110.031 179.837 111.07C180.334 109.851 181.102 108.97 182.14 108.428C183.179 107.841 184.263 107.547 185.393 107.547C186.973 107.547 188.216 107.886 189.119 108.564C190.022 109.241 190.655 110.099 191.016 111.138C191.377 112.177 191.558 113.261 191.558 114.39V141.356ZM198.386 100.094C198.522 100.23 198.589 100.411 198.589 100.636C198.589 101.224 198.296 101.517 197.709 101.517C197.121 101.517 196.828 101.224 196.828 100.636C196.828 100.411 196.896 100.23 197.031 100.094V98.1296C196.896 97.9038 196.828 97.7005 196.828 97.5199C196.828 96.9327 197.121 96.6391 197.709 96.6391C198.296 96.6391 198.589 96.9327 198.589 97.5199C198.589 97.7005 198.522 97.9038 198.386 98.1296V100.094ZM198.386 141.356C198.522 141.491 198.589 141.672 198.589 141.898C198.589 142.485 198.296 142.778 197.709 142.778C197.121 142.778 196.828 142.485 196.828 141.898C196.828 141.672 196.896 141.491 197.031 141.356V109.038C196.896 108.812 196.828 108.609 196.828 108.428C196.828 107.841 197.121 107.547 197.709 107.547C198.296 107.547 198.589 107.841 198.589 108.428C198.589 108.609 198.522 108.812 198.386 109.038V141.356ZM217.931 141.356C218.066 141.491 218.134 141.672 218.134 141.898C218.134 142.485 217.84 142.778 217.253 142.778C216.666 142.778 216.372 142.485 216.372 141.898C216.372 141.672 216.44 141.491 216.576 141.356V115.339C216.576 114.3 216.417 113.306 216.101 112.358C215.785 111.364 215.221 110.551 214.407 109.919C213.594 109.241 212.443 108.902 210.952 108.902C209.687 108.902 208.626 109.241 207.768 109.919C206.955 110.551 206.345 111.364 205.938 112.358C205.532 113.306 205.329 114.3 205.329 115.339V141.356C205.464 141.491 205.532 141.672 205.532 141.898C205.532 142.485 205.238 142.778 204.651 142.778C204.064 142.778 203.77 142.485 203.77 141.898C203.77 141.672 203.838 141.491 203.974 141.356V109.038C203.838 108.812 203.77 108.609 203.77 108.428C203.77 107.841 204.064 107.547 204.651 107.547C205.238 107.547 205.532 107.841 205.532 108.428C205.532 108.609 205.464 108.812 205.329 109.038V110.732C206.503 108.609 208.378 107.547 210.952 107.547C212.759 107.547 214.159 107.931 215.153 108.699C216.192 109.467 216.914 110.438 217.321 111.612C217.727 112.787 217.931 114.029 217.931 115.339V141.356ZM236.846 134.987C236.846 136.252 236.62 137.494 236.168 138.713C235.762 139.888 235.039 140.859 234 141.627C233.006 142.394 231.629 142.778 229.867 142.778C228.106 142.778 226.705 142.394 225.667 141.627C224.673 140.859 223.95 139.888 223.498 138.713C223.092 137.494 222.889 136.252 222.889 134.987V115.339C222.889 114.029 223.092 112.787 223.498 111.612C223.95 110.438 224.673 109.467 225.667 108.699C226.705 107.931 228.106 107.547 229.867 107.547C231.629 107.547 233.006 107.931 234 108.699C235.039 109.467 235.762 110.438 236.168 111.612C236.62 112.787 236.846 114.029 236.846 115.339V134.987ZM224.244 134.987C224.244 136.026 224.402 137.042 224.718 138.036C225.079 139.029 225.667 139.842 226.48 140.475C227.338 141.107 228.467 141.423 229.867 141.423C231.358 141.423 232.51 141.107 233.323 140.475C234.136 139.842 234.7 139.029 235.016 138.036C235.333 137.042 235.491 136.026 235.491 134.987V115.339C235.491 114.3 235.333 113.306 235.016 112.358C234.7 111.364 234.136 110.551 233.323 109.919C232.51 109.241 231.358 108.902 229.867 108.902C228.467 108.902 227.338 109.241 226.48 109.919C225.667 110.551 225.079 111.364 224.718 112.358C224.402 113.306 224.244 114.3 224.244 115.339V134.987ZM255.57 134.987C255.57 136.252 255.344 137.494 254.893 138.713C254.486 139.888 253.763 140.859 252.725 141.627C251.731 142.394 250.353 142.778 248.592 142.778C246.83 142.778 245.43 142.394 244.391 141.627C243.397 140.859 242.675 139.888 242.223 138.713C241.816 137.494 241.613 136.252 241.613 134.987V115.339C241.613 114.029 241.816 112.787 242.223 111.612C242.675 110.438 243.397 109.467 244.391 108.699C245.43 107.931 246.83 107.547 248.592 107.547C250.353 107.547 251.731 107.931 252.725 108.699C253.763 109.467 254.486 110.438 254.893 111.612C255.344 112.787 255.57 114.029 255.57 115.339V134.987ZM242.968 134.987C242.968 136.026 243.126 137.042 243.443 138.036C243.804 139.029 244.391 139.842 245.204 140.475C246.062 141.107 247.192 141.423 248.592 141.423C250.082 141.423 251.234 141.107 252.047 140.475C252.86 139.842 253.425 139.029 253.741 138.036C254.057 137.042 254.215 136.026 254.215 134.987V115.339C254.215 114.3 254.057 113.306 253.741 112.358C253.425 111.364 252.86 110.551 252.047 109.919C251.234 109.241 250.082 108.902 248.592 108.902C247.192 108.902 246.062 109.241 245.204 109.919C244.391 110.551 243.804 111.364 243.443 112.358C243.126 113.306 242.968 114.3 242.968 115.339V134.987Z" fill="black"/>
<g clip-path="url(#clip0_15_58)">
<path d="M215.526 78.9501C214.988 77.4425 213.898 76.1954 212.476 75.4609C211.054 74.7264 209.407 74.5595 207.866 74.9938L195.706 78.3904C194.146 78.8238 192.812 79.84 191.98 81.2288C191.148 82.6176 190.882 84.2729 191.236 85.8527C191.258 85.9599 191.288 86.0655 191.324 86.1689L193.872 95.2891C194.025 95.8498 194.288 96.3746 194.645 96.833C195.002 97.2914 195.447 97.6744 195.954 97.9596C196.46 98.2449 197.018 98.4269 197.595 98.495C198.172 98.5631 198.758 98.516 199.316 98.3564C201.055 97.8707 201.778 96.2794 202.486 94.7314C202.749 94.1728 203.018 93.5864 203.328 93.0541C203.777 92.4828 204.325 91.9967 204.946 91.619C205.548 91.3723 206.176 91.1967 206.819 91.0959C207.545 91.0972 208.266 91.229 208.946 91.4849C209.487 91.7794 210.021 92.1416 210.536 92.4828C211.933 93.4034 213.386 94.4265 215.125 93.9408C215.686 93.7877 216.21 93.5248 216.669 93.1674C217.127 92.81 217.51 92.3652 217.795 91.8588C218.081 91.3524 218.263 90.7944 218.331 90.2171C218.399 89.6399 218.352 89.0548 218.192 88.4959L215.645 79.3757C215.622 79.2686 215.592 79.163 215.556 79.0595L215.526 78.9501ZM215.76 89.1752C215.895 89.659 215.833 90.1766 215.586 90.6142C215.34 91.0519 214.929 91.3736 214.446 91.5088C213.837 91.6786 213.012 91.0702 211.958 90.3945C211.412 90.0357 210.794 89.6054 210.132 89.2529C209.053 88.7895 207.89 88.5563 206.716 88.5684C205.677 88.6663 204.664 88.9493 203.724 89.404C202.714 90.002 201.84 90.8043 201.157 91.7596C200.774 92.4042 200.468 93.0927 200.187 93.6824C199.684 94.7928 199.245 95.7545 198.637 95.9243C198.153 96.0595 197.636 95.9969 197.198 95.7504C196.76 95.5038 196.439 95.0936 196.304 94.6098L193.756 85.4896C193.745 85.4272 193.728 85.3662 193.705 85.3072C193.491 84.3585 193.649 83.3637 194.148 82.5288C194.647 81.6939 195.448 81.083 196.385 80.8225L208.546 77.4259C209.456 77.1674 210.43 77.2589 211.276 77.6824C212.122 78.106 212.779 78.8309 213.118 79.7145L213.158 79.8604C213.17 79.9268 213.188 79.992 213.213 80.055L215.76 89.1752Z" fill="#0183FF"/>
<path d="M209.707 86.278C210.379 86.0904 210.771 85.3939 210.584 84.7223C210.396 84.0507 209.7 83.6584 209.028 83.8459C208.356 84.0335 207.964 84.73 208.152 85.4016C208.339 86.0732 209.036 86.4656 209.707 86.278Z" fill="#0183FF"/>
<path d="M211.46 83.1663C212.131 82.9787 212.524 82.2822 212.336 81.6106C212.149 80.939 211.452 80.5467 210.78 80.7343C210.109 80.9218 209.717 81.6183 209.904 82.2899C210.092 82.9615 210.788 83.3539 211.46 83.1663Z" fill="#0183FF"/>
<path d="M208.348 81.4139C209.02 81.2263 209.412 80.5298 209.224 79.8582C209.037 79.1866 208.34 78.7942 207.669 78.9818C206.997 79.1694 206.605 79.8659 206.792 80.5375C206.98 81.2091 207.676 81.6015 208.348 81.4139Z" fill="#0183FF"/>
<path d="M206.596 84.5251C207.267 84.3376 207.66 83.641 207.472 82.9694C207.284 82.2979 206.588 81.9055 205.916 82.0931C205.245 82.2807 204.852 82.9772 205.04 83.6488C205.227 84.3204 205.924 84.7127 206.596 84.5251Z" fill="#0183FF"/>
<path d="M199.639 87.779C200.982 87.4038 201.767 86.0108 201.392 84.6676C201.016 83.3244 199.623 82.5397 198.28 82.9149C196.937 83.29 196.152 84.683 196.527 86.0262C196.903 87.3694 198.296 88.1542 199.639 87.779Z" fill="#0183FF"/>
</g>
<defs>
<clipPath id="clip0_15_58">
<rect width="30.3018" height="30.3018" fill="white" transform="translate(185.835 75.9042) rotate(-15.6061)"/>
</clipPath>
</defs>
</svg>
