<svg width="50" height="50" viewBox="0 0 50 50" fill="none" xmlns="http://www.w3.org/2000/svg">
<path d="M31.1354 2.60419C28.2875 2.60419 25.9896 2.60419 24.1833 2.84794C22.3083 3.09794 20.7292 3.6396 19.475 4.89169C18.3833 5.98544 17.8292 7.32919 17.5396 8.90835C17.2583 10.4438 17.2042 12.3209 17.1917 14.575C17.1895 14.9894 17.352 15.3877 17.6434 15.6823C17.9349 15.9769 18.3314 16.1436 18.7458 16.1459C19.1602 16.1481 19.5585 15.9856 19.8531 15.6941C20.1477 15.4026 20.3145 15.0061 20.3167 14.5917C20.3292 12.3146 20.3875 10.7 20.6125 9.47294C20.8313 8.29377 21.1792 7.60835 21.6854 7.1021C22.2625 6.52502 23.0729 6.15002 24.6021 5.94377C26.175 5.73335 28.2604 5.72919 31.25 5.72919H33.3333C36.325 5.72919 38.4104 5.73335 39.9833 5.94377C41.5125 6.15002 42.3208 6.5271 42.9 7.1021C43.475 7.67919 43.85 8.48752 44.0563 10.0188C44.2688 11.5896 44.2708 13.6771 44.2708 16.6667V33.3334C44.2708 36.3229 44.2688 38.4084 44.0563 39.9834C43.85 41.5125 43.475 42.3209 42.8979 42.8979C42.3208 43.475 41.5125 43.85 39.9833 44.0563C38.4104 44.2667 36.325 44.2709 33.3333 44.2709H31.25C28.2604 44.2709 26.175 44.2667 24.6 44.0563C23.0729 43.85 22.2625 43.4729 21.6854 42.8979C21.1792 42.3896 20.8313 41.7063 20.6125 40.5271C20.3875 39.3 20.3292 37.6854 20.3167 35.4084C20.3156 35.2032 20.2741 35.0002 20.1945 34.811C20.115 34.6219 19.999 34.4503 19.8531 34.3059C19.7073 34.1616 19.5344 34.0474 19.3444 33.9699C19.1544 33.8924 18.951 33.8531 18.7458 33.8542C18.5406 33.8553 18.3377 33.8968 18.1485 33.9763C17.9594 34.0558 17.7877 34.1719 17.6434 34.3177C17.4991 34.4636 17.3849 34.6365 17.3074 34.8264C17.2299 35.0164 17.1906 35.2198 17.1917 35.425C17.2042 37.6792 17.2583 39.5563 17.5396 41.0917C17.8313 42.6709 18.3833 44.0146 19.4771 45.1084C20.7292 46.3625 22.3104 46.9 24.1854 47.1542C25.9896 47.3959 28.2875 47.3959 31.1354 47.3959H33.4479C36.2979 47.3959 38.5938 47.3959 40.4 47.1542C42.275 46.9 43.8542 46.3625 45.1083 45.1084C46.3625 43.8542 46.9 42.275 47.1542 40.4C47.3958 38.5938 47.3958 36.2959 47.3958 33.4479V16.5521C47.3958 13.7042 47.3958 11.4063 47.1542 9.60002C46.9021 7.72502 46.3625 6.14585 45.1083 4.89169C43.8542 3.63752 42.275 3.10002 40.4 2.84794C38.5938 2.60419 36.2958 2.60419 33.4479 2.60419H31.1354Z" fill="#1E1E1E" fill-opacity="0.6"/>
<path d="M31.2495 23.4375C31.6639 23.4375 32.0614 23.6021 32.3544 23.8951C32.6474 24.1881 32.812 24.5856 32.812 25C32.812 25.4144 32.6474 25.8118 32.3544 26.1048C32.0614 26.3978 31.6639 26.5625 31.2495 26.5625H8.38912L12.4745 30.0625C12.7895 30.3321 12.9844 30.7158 13.0164 31.1292C13.0485 31.5425 12.915 31.9517 12.6454 32.2666C12.3757 32.5816 11.992 32.7765 11.5787 32.8085C11.1653 32.8406 10.7561 32.7071 10.4412 32.4375L3.14953 26.1875C2.978 26.0408 2.84029 25.8587 2.74586 25.6537C2.65143 25.4487 2.60254 25.2257 2.60254 25C2.60254 24.7743 2.65143 24.5512 2.74586 24.3463C2.84029 24.1413 2.978 23.9591 3.14953 23.8125L10.4412 17.5625C10.5971 17.429 10.7779 17.3275 10.973 17.2638C11.1682 17.2001 11.374 17.1755 11.5787 17.1914C11.7833 17.2072 11.9829 17.2633 12.1659 17.3562C12.3489 17.4492 12.5119 17.5774 12.6454 17.7333C12.7789 17.8892 12.8804 18.07 12.944 18.2651C13.0077 18.4603 13.0323 18.6661 13.0164 18.8708C13.0006 19.0754 12.9446 19.275 12.8516 19.458C12.7586 19.641 12.6305 19.804 12.4745 19.9375L8.3912 23.4375H31.2495Z" fill="#1E1E1E" fill-opacity="0.6"/>
</svg>
